# xmcd
#
# Track frame offsets:
# 150
# 15678
# 36928
# 58598
# 78875
# 96296
# 105643
# 129849
# 150946
# 172908
# 192104
# 208537
# 220662
# 237986
# 258545
# 270897
# 286553
#
# Disc length: 4127 seconds
#
# Revision: 1
# Processed by: cddbd v1.5.2PL0 Copyright (c) Steve Scherf et al.
# Submitted via: CedeCatalogueitor 2.6.0.6 http://personales.ya.com/cdcatalogueitor
#
DISCID=d1101d11
DTITLE=Varios Artistas - Ahora Y Aquí
DYEAR=1900
DGENRE=
TTITLE0=Putirecords: Hazme El Amor
TTITLE1=Roberta Marrero and Elektro: Estoy Llorando Por Ti
TTITLE2=Caligula 2000: Avón Llama
TTITLE3=Roberta Marrero: En Un Rincón De Tu Corazón
TTITLE4=Popbitch and Spunky: Too Shy
TTITLE5=Intronautas: Nunca Conocí A Liberace
TTITLE6=Pentimento: Si Tú Me Dejaras
TTITLE7=La Prohibida: Sin Tu Amor
TTITLE8=Caligula 2000: El Agua De Hawai 
TTITLE9=Roberta Marrero and Spunky: Como Un Navegante
TTITLE10=Popbitch and Spunky: Hypnotized
TTITLE11=Intronautas: Barbie Debe Morir
TTITLE12=Putirecords: Corazón Sintético
TTITLE13=Caligula 2000: Jan Y Dean En La Curva Del Hombre Muerto
TTITLE14=Intronautas: Máxima Ansiedad
TTITLE15=Parabólica: Bajo El Cielo
TTITLE16=La Prohibida: No Busques Compañia
EXTD=
EXTT0=
EXTT1=
EXTT2=
EXTT3=
EXTT4=
EXTT5=
EXTT6=
EXTT7=
EXTT8=
EXTT9=
EXTT10=
EXTT11=
EXTT12=
EXTT13=
EXTT14=
EXTT15=
EXTT16=
PLAYORDER=
